<?xml version="1.0" encoding="UTF-8"?>
<svg class="" width="512" height="512" enable-background="new 0 0 512 512" version="1.1" viewBox="0 0 373.23 373.23" xml:space="preserve" xmlns="http://www.w3.org/2000/svg">
<g xmlns="http://www.w3.org/2000/svg">
		<path class="" d="m187.47 0c-0.1 0.1-0.3 0.1-0.6 0.1-101.2 0-183.5 82.3-183.5 183.5 0 41.3 14.1 81.4 39.9 113.7l-26.7 62c-2.2 5.1 0.2 11 5.2 13.1 1.8 0.8 3.8 1 5.7 0.7l97.9-17.2c19.6 7.1 40.2 10.7 61 10.6 101.2 0 183.5-82.3 183.5-183.5 0.2-100.9-81.5-182.9-182.4-183zm-1 346.6c-19.3 0-38.4-3.5-56.5-10.3-1.7-0.7-3.5-0.8-5.3-0.5l-82.4 14.4 21.8-50.7c1.5-3.5 0.9-7.6-1.6-10.5-11.8-13.7-21.2-29.3-27.8-46.2-7.4-18.9-11.2-39-11.2-59.3 0-90.2 73.4-163.5 163.5-163.5 89.9-0.2 162.9 72.5 163 162.4v0.6c0 90.3-73.4 163.6-163.5 163.6z" fill="#fff" data-original="#000000"/>
</g>
<g xmlns="http://www.w3.org/2000/svg">
		<path class="" d="m178.67 146.7h-54c-5.5 0-10 4.5-10 10s4.5 10 10 10h54c5.5 0 10-4.5 10-10s-4.5-10-10-10z" fill="#fff" data-original="#000000"/>
</g>
<g xmlns="http://www.w3.org/2000/svg">
		<path class="" d="m248.67 196.7h-124c-5.5 0-10 4.5-10 10s4.5 10 10 10h124c5.5 0 10-4.5 10-10s-4.5-10-10-10z" fill="#fff" data-original="#000000"/>
</g>
</svg>